<?xml version="1.0" standalone="no"?>
<!DOCTYPE svg PUBLIC "-//W3C//DTD SVG 20010904//EN"
 "http://www.w3.org/TR/2001/REC-SVG-20010904/DTD/svg10.dtd">
<svg version="1.0" xmlns="http://www.w3.org/2000/svg"
 width="150.000000pt" height="115.000000pt" viewBox="0 0 150.000000 115.000000"
 preserveAspectRatio="xMidYMid meet">

<g transform="translate(0.000000,115.000000) scale(0.100000,-0.100000)"
fill="#000000" stroke="none">
<path d="M967 983 c-5 -9 -44 -184 -49 -219 -2 -11 2 -22 7 -23 6 -1 16 30 24
68 l13 70 47 -5 c25 -3 62 -10 81 -15 44 -11 70 -11 70 -1 0 9 -71 28 -142 37
-53 7 -52 6 -39 52 9 29 -1 55 -12 36z"/>
<path d="M700 924 c0 -3 4 -13 10 -23 5 -10 19 -63 30 -117 11 -55 23 -109 26
-122 8 -38 24 -14 18 28 -6 36 -5 38 25 45 29 6 48 21 39 31 -3 2 -19 -1 -37
-7 -18 -6 -34 -9 -37 -6 -3 3 -12 34 -19 70 -15 71 -30 107 -45 107 -6 0 -10
-3 -10 -6z"/>
<path d="M585 802 c-33 -7 -136 -73 -129 -83 3 -5 24 2 47 16 62 39 86 49 94
41 4 -4 9 -49 11 -101 3 -54 9 -95 14 -95 13 0 6 206 -7 218 -6 5 -19 7 -30 4z"/>
<path d="M1015 770 c-3 -5 -2 -18 3 -27 8 -15 21 -68 37 -148 3 -16 -7 -26
-53 -48 -70 -35 -98 -55 -88 -64 4 -4 17 -1 29 7 12 7 107 56 212 109 104 53
181 97 172 99 -9 2 -67 -22 -128 -52 -60 -31 -114 -54 -120 -51 -5 4 -9 14 -9
23 0 30 -33 162 -41 162 -4 0 -11 -4 -14 -10z"/>
<path d="M330 756 c-12 -15 -153 -106 -164 -106 -3 0 -6 9 -6 20 0 11 -5 20
-11 20 -12 0 -8 -39 15 -140 19 -84 33 -120 46 -120 6 0 27 7 47 15 19 8 39
15 42 15 4 0 15 -35 25 -77 10 -43 20 -85 22 -94 3 -12 -20 -29 -95 -65 -96
-47 -118 -64 -86 -64 30 0 365 185 365 201 0 16 -19 9 -86 -32 -47 -28 -69
-37 -74 -29 -12 20 -42 158 -38 172 3 7 27 24 54 38 27 14 49 30 49 35 -1 29
-72 225 -81 225 -6 0 -17 -6 -24 -14z m50 -112 c18 -52 30 -97 29 -98 -2 -2
-47 -25 -99 -50 -109 -53 -96 -60 -124 62 l-14 62 86 59 c48 32 88 59 89 60 1
0 16 -42 33 -95z"/>
<path d="M686 530 c-120 -66 -122 -67 -113 -76 3 -4 53 19 111 50 58 31 110
56 115 56 5 0 16 -30 24 -66 16 -68 22 -82 33 -71 12 11 -31 162 -46 164 -8 1
-64 -24 -124 -57z"/>
</g>
</svg>
